<svg width="167" height="17" viewBox="0 0 167 17" fill="none" xmlns="http://www.w3.org/2000/svg">
<rect x="0.292725" y="0.893921" width="16.0256" height="16.0256" rx="2.67093" fill="#E8F5E9"/>
<g clip-path="url(#clip0_212_1585)">
<path fill-rule="evenodd" clip-rule="evenodd" d="M3.74931 0.958862C5.59319 0.958862 7.08798 2.45363 7.08798 4.29753V0.958862H10.4266C12.2705 0.958862 13.7653 2.45363 13.7653 4.29753C13.7653 6.14141 12.2705 7.63619 10.4266 7.63619C12.2705 7.63619 13.7653 9.13098 13.7653 10.9749C13.7653 11.8904 13.3968 12.7199 12.7999 13.3231L12.7874 13.3357L12.7764 13.3467C12.1731 13.9444 11.343 14.3135 10.4266 14.3135C9.51655 14.3135 8.6915 13.9494 8.08924 13.3588C8.08143 13.3512 8.07362 13.3434 8.06584 13.3357C8.05853 13.3284 8.05125 13.321 8.044 13.3136C7.45269 12.7113 7.08798 11.8856 7.08798 10.9749C7.08798 12.8187 5.59319 14.3135 3.74931 14.3135C1.90542 14.3135 0.410645 12.8187 0.410645 10.9749V7.63619H3.74931C1.90542 7.63619 0.410645 6.14141 0.410645 4.29753C0.410645 2.45363 1.90542 0.958862 3.74931 0.958862ZM6.42024 4.29753C6.42024 5.77265 5.22443 6.96846 3.74931 6.96846V1.6266C5.22443 1.6266 6.42024 2.82241 6.42024 4.29753ZM13.0976 10.9749C13.0976 9.49974 11.9018 8.30393 10.4266 8.30393C8.95152 8.30393 7.75571 9.49974 7.75571 10.9749H13.0976ZM1.07838 8.30393V10.9749C1.07838 12.45 2.27419 13.6458 3.74931 13.6458C5.22443 13.6458 6.42024 12.45 6.42024 10.9749V8.30393H1.07838ZM7.75571 6.96846V1.6266H10.4266C11.9018 1.6266 13.0976 2.82241 13.0976 4.29753C13.0976 5.77265 11.9018 6.96846 10.4266 6.96846H7.75571Z" fill="#5417D7"/>
</g>
<rect x="30.0068" y="0.893921" width="16.0256" height="16.0256" rx="2.67093" fill="#F5F7FA"/>
<g clip-path="url(#clip1_212_1585)">
<path fill-rule="evenodd" clip-rule="evenodd" d="M33.3781 5.55513L30.0442 8.85553C30.711 9.51568 31.4728 10.072 32.3033 10.5073C32.5329 11.1101 32.8927 11.6755 33.3829 12.1606C35.2268 13.986 38.2163 13.986 40.0602 12.1606C40.5503 11.6755 40.9101 11.1101 41.1397 10.5073C41.9702 10.072 42.732 9.51568 43.3989 8.85553L40.0676 5.55781C40.0652 5.55535 40.0627 5.55288 40.0602 5.55042C38.2163 3.72506 35.2268 3.72506 33.3829 5.55042C33.3813 5.55199 33.3797 5.55356 33.3781 5.55513ZM39.7412 11.1028C38.7696 11.4273 37.7497 11.5936 36.7215 11.5936C35.6933 11.5936 34.6734 11.4273 33.7019 11.1028C33.8072 11.241 33.9234 11.3737 34.0506 11.4996C35.5257 12.9599 37.9173 12.9599 39.3925 11.4996C39.5197 11.3737 39.6359 11.241 39.7412 11.1028ZM34.1191 6.14533C34.3696 6.30916 34.6359 6.44936 34.9146 6.56365C35.4875 6.79855 36.1015 6.91945 36.7215 6.91945C37.3416 6.91945 37.9556 6.79855 38.5284 6.56365C38.8071 6.44936 39.0735 6.30916 39.324 6.14533C37.8673 4.77318 35.5758 4.77319 34.1191 6.14533Z" fill="#3B4158"/>
</g>
<rect x="59.7209" y="0.893921" width="16.0256" height="16.0256" rx="2.67093" fill="#F5F7FA"/>
<g clip-path="url(#clip2_212_1585)">
<path d="M78.0822 7.40977C78.0841 7.39585 78.0841 7.38178 78.0822 7.36786C78.084 7.35651 78.084 7.34494 78.0822 7.33358L77.9461 6.35446C77.9265 6.23732 77.874 6.12784 77.7946 6.03825L77.7713 6.01158L77.7285 5.96967L75.3736 3.98097L75.4396 4.04574C75.3856 3.98235 75.3178 3.93164 75.2411 3.89735C75.1644 3.86307 75.0809 3.84608 74.9966 3.84763H74.2816C74.1653 3.84538 74.0517 3.88162 73.959 3.9505C73.8618 3.88203 73.7446 3.84598 73.6248 3.84763H72.9098C72.816 3.84614 72.7235 3.86896 72.6416 3.91378C72.5597 3.95861 72.4914 4.02384 72.4435 4.10289C72.3696 4.21578 72.3419 4.35181 72.3658 4.48387L72.4551 5.10105C72.3959 5.06814 72.3289 5.05106 72.2608 5.05152H68.7983C68.6741 5.05229 68.5527 5.08799 68.4486 5.15438C68.3479 5.21619 68.267 5.30468 68.2154 5.40964L67.9473 5.18486C67.8418 5.08913 67.7025 5.03724 67.5587 5.04009H62.126C62.0013 5.04232 61.8794 5.07646 61.7723 5.13915C61.6259 5.22319 61.5186 5.35983 61.4731 5.52012L59.7477 11.1776C59.7155 11.2709 59.7123 11.3714 59.7386 11.4664C59.7649 11.5614 59.8195 11.6466 59.8954 11.711C59.9151 11.7274 59.9359 11.7427 59.9575 11.7567C59.9575 11.7567 59.9226 11.7339 59.9031 11.7148L62.2581 13.7073C62.3577 13.7972 62.488 13.8475 62.6234 13.8483H68.0989C68.2239 13.8451 68.3459 13.8096 68.4525 13.7454C68.5128 13.7131 68.5667 13.6705 68.6118 13.6197L68.6313 13.593L68.6623 13.5549L68.6856 13.513L68.9421 13.7302C69.0403 13.8165 69.1677 13.864 69.2997 13.8635H74.7868C74.9117 13.8594 75.0334 13.824 75.1404 13.7607C75.1993 13.7264 75.253 13.684 75.2998 13.6349L75.3192 13.6083L75.3502 13.5702C75.3668 13.5461 75.3811 13.5206 75.393 13.494C75.4057 13.4709 75.4161 13.4466 75.4241 13.4216L76.9979 8.25555V8.20983C76.9999 8.1921 76.9999 8.17422 76.9979 8.15649V8.12221C76.9998 8.11084 76.9998 8.09927 76.9979 8.08791C76.9997 8.06382 76.9997 8.03963 76.9979 8.01552H77.5031C77.5471 8.01947 77.5913 8.01947 77.6353 8.01552H77.6702C77.6987 8.0072 77.7261 7.99568 77.7519 7.98124H77.7907L77.8607 7.9279L77.8917 7.90504L77.9461 7.83645V7.81362L77.985 7.74884C77.9828 7.73624 77.9828 7.72335 77.985 7.71075C77.9829 7.70457 77.9829 7.69788 77.985 7.6917C77.9933 7.66936 77.9998 7.64643 78.0044 7.62311C78.0026 7.6156 78.0026 7.60776 78.0044 7.60025C78.0026 7.58891 78.0026 7.57732 78.0044 7.56597C78.0044 7.56597 78.0822 7.41739 78.0822 7.40977Z" fill="black"/>
<path d="M67.718 5.47447C67.7386 5.49275 67.753 5.5168 67.7593 5.54337C67.7655 5.56994 67.7633 5.59774 67.753 5.62304L66.0314 11.2767C66.0098 11.3385 65.9654 11.3901 65.9071 11.4215C65.8596 11.4527 65.8047 11.471 65.7477 11.4749H60.2762C60.2294 11.4727 60.1852 11.4537 60.1518 11.4215C60.132 11.4035 60.118 11.3801 60.1118 11.3544C60.1056 11.3286 60.1073 11.3016 60.1168 11.2767L61.8423 5.62304C61.8621 5.56054 61.9051 5.50756 61.9627 5.47447C62.011 5.44557 62.0656 5.42858 62.1221 5.42494H67.5936C67.64 5.42537 67.6844 5.44308 67.718 5.47447ZM64.8617 10.1376L65.8915 6.76216H63.0081L61.9822 10.1376H64.8617ZM72.9409 5.53161C72.9595 5.55288 72.9829 5.56974 73.0091 5.58096C73.0353 5.59217 73.0638 5.59744 73.0924 5.59637H73.8036C73.8307 5.59664 73.8573 5.59012 73.8812 5.57746C73.9049 5.56479 73.925 5.54639 73.9396 5.52399C73.9522 5.50649 73.9611 5.48668 73.9658 5.46574C73.9705 5.4448 73.9708 5.42315 73.9668 5.40208L73.8269 4.3963C73.8136 4.34975 73.7896 4.30677 73.7569 4.27057C73.7383 4.24931 73.7149 4.23244 73.6887 4.22123C73.6625 4.21001 73.634 4.20474 73.6054 4.20581H72.8942C72.8672 4.20555 72.8404 4.21206 72.8167 4.22473C72.7929 4.23739 72.7727 4.25579 72.7582 4.2782C72.731 4.33153 72.7194 4.36582 72.731 4.3963L72.8748 5.40208C72.8822 5.45105 72.9053 5.49643 72.9409 5.53161ZM75.1987 4.38868C75.1853 4.34213 75.1614 4.29914 75.1287 4.26296C75.1108 4.24176 75.0882 4.2249 75.0626 4.21367C75.037 4.20244 75.0091 4.19714 74.9811 4.19819H74.266C74.2394 4.19745 74.213 4.20378 74.1898 4.21652C74.1665 4.22927 74.1472 4.24795 74.1339 4.27057C74.108 4.30437 74.0968 4.34683 74.1028 4.38868L74.2466 5.39446C74.2556 5.44291 74.2785 5.48785 74.3126 5.52399C74.3316 5.54484 74.355 5.56143 74.3812 5.5726C74.4074 5.58378 74.4357 5.58929 74.4642 5.58875H75.1792C75.2058 5.5891 75.232 5.5826 75.2552 5.56989C75.2784 5.55718 75.2978 5.53873 75.3114 5.51637C75.3249 5.49933 75.3343 5.47953 75.339 5.45843C75.3438 5.43734 75.3436 5.41548 75.3386 5.39446L75.1987 4.38868ZM72.3152 5.91259L72.2452 5.41732H68.7983C68.7442 5.42024 68.6918 5.43735 68.6467 5.46684C68.6181 5.48215 68.5932 5.50335 68.5738 5.529C68.5543 5.55466 68.5408 5.58414 68.5341 5.61543L68.2465 6.56024C68.235 6.58385 68.2311 6.61035 68.2352 6.63619C68.2394 6.66203 68.2515 6.68602 68.2698 6.70502C68.3026 6.73522 68.3453 6.75282 68.3903 6.75455H72.5795L71.5497 10.13H67.3721C67.3183 10.1312 67.2658 10.147 67.2206 10.1757C67.1656 10.2099 67.1255 10.2629 67.1079 10.3243L66.8164 11.2691C66.8069 11.2934 66.8044 11.3197 66.8092 11.3453C66.814 11.3708 66.8259 11.3946 66.8436 11.4139C66.8754 11.4461 66.9185 11.4652 66.9641 11.4672H72.4512C72.508 11.4624 72.5627 11.4441 72.6105 11.4139C72.6679 11.3823 72.711 11.3306 72.731 11.2691L74.3087 6.10308H72.5328C72.5046 6.10362 72.4767 6.09849 72.4506 6.08801C72.4245 6.07752 72.4009 6.0619 72.3813 6.04212C72.3491 6.00757 72.3264 5.96564 72.3152 5.92021V5.91259Z" fill="white"/>
</g>
<rect x="89.4351" y="0.893921" width="16.0256" height="16.0256" rx="2.67093" fill="#F5F7FA"/>
<g clip-path="url(#clip3_212_1585)">
<path d="M104.124 5.37156C104.124 5.38285 104.124 5.39696 104.121 5.40543C104.106 5.5155 104.106 5.62557 104.115 5.73846C104.121 5.76669 104.127 5.79491 104.15 5.81749C104.189 5.85982 104.247 5.85136 104.271 5.80055C104.283 5.77515 104.283 5.74975 104.277 5.72435C104.247 5.6171 104.242 5.50421 104.239 5.39414C104.239 5.38849 104.239 5.38003 104.239 5.37156C104.271 5.36874 104.3 5.36591 104.327 5.36591C104.347 5.36309 104.365 5.36027 104.38 5.3518C104.424 5.32922 104.424 5.28125 104.377 5.25867C104.359 5.2502 104.336 5.24738 104.315 5.24738C104.242 5.2502 104.168 5.2502 104.095 5.2502C104.068 5.2502 104.042 5.25302 104.015 5.25584C104 5.25867 103.983 5.25867 103.971 5.26713C103.95 5.2756 103.939 5.28971 103.939 5.30947C103.942 5.32922 103.95 5.34051 103.971 5.34898C103.983 5.35745 103.998 5.36027 104.012 5.36027C104.048 5.36309 104.086 5.36874 104.124 5.37156ZM104.933 5.50139C104.933 5.50421 104.936 5.50703 104.936 5.50703C104.947 5.58323 104.959 5.65661 104.968 5.72999C104.971 5.75539 104.974 5.77797 104.991 5.79773C105.03 5.84571 105.088 5.84006 105.115 5.78926C105.127 5.76386 105.13 5.73846 105.124 5.71024C105.106 5.62557 105.097 5.5409 105.08 5.45905C105.068 5.40825 105.053 5.36027 105.039 5.31511C105.03 5.28689 105.009 5.26713 104.974 5.26431C104.939 5.25867 104.912 5.2756 104.897 5.301C104.88 5.32358 104.865 5.34616 104.853 5.37156C104.833 5.41672 104.815 5.46187 104.791 5.50421C104.789 5.5155 104.786 5.52397 104.78 5.53243C104.777 5.52679 104.774 5.52397 104.774 5.52397C104.736 5.45341 104.7 5.38285 104.662 5.31511C104.656 5.30947 104.653 5.30382 104.65 5.29818C104.633 5.27278 104.612 5.25867 104.58 5.25867C104.55 5.26149 104.527 5.27842 104.512 5.30382C104.506 5.31511 104.506 5.32358 104.503 5.33487C104.492 5.42518 104.477 5.5155 104.465 5.60581C104.459 5.65661 104.456 5.70742 104.456 5.75822C104.453 5.76951 104.456 5.78362 104.462 5.79491C104.468 5.81749 104.486 5.8316 104.509 5.83442C104.539 5.83724 104.559 5.82878 104.568 5.8062C104.577 5.78926 104.58 5.77515 104.583 5.76104C104.594 5.71024 104.603 5.66226 104.612 5.61428C104.618 5.58606 104.621 5.56348 104.63 5.53243C104.636 5.54372 104.642 5.55219 104.647 5.56065C104.674 5.59452 104.7 5.62839 104.733 5.65661C104.765 5.67919 104.791 5.67637 104.818 5.65097C104.824 5.64532 104.827 5.6425 104.833 5.63686C104.859 5.59734 104.891 5.55783 104.918 5.51832C104.924 5.51267 104.927 5.50703 104.933 5.50139Z" fill="#3A3B7B"/>
<path d="M98.1572 5.42697C98.1368 5.48061 98.1329 5.51925 98.1423 5.55137C98.1527 5.59504 98.1798 5.60934 98.2165 5.59823C98.5619 5.51626 99.3193 5.74894 99.5997 5.81379C99.6659 5.82741 99.7197 5.74547 99.6745 5.67201C99.6087 5.60087 98.8516 5.29628 98.5628 5.27968C98.4495 5.27353 98.2471 5.24567 98.1572 5.42697Z" fill="#3A3B7B"/>
<path d="M101.117 4.441C101.154 4.46139 101.175 4.48084 101.185 4.50257C101.2 4.53108 101.192 4.55081 101.167 4.56087C100.938 4.66782 100.634 5.12825 100.512 5.28705C100.482 5.32358 100.413 5.30235 100.403 5.24228C100.405 5.17436 100.675 4.67469 100.825 4.53859C100.884 4.48546 100.981 4.3812 101.117 4.441Z" fill="#3A3B7B"/>
<path d="M99.2989 4.21436C99.3432 4.18237 99.3891 4.17116 99.4126 4.19195C99.7571 4.4747 99.9398 4.92246 100.053 5.33238C100.057 5.34193 100.057 5.35563 100.054 5.36993C100.053 5.38215 100.043 5.39505 100.029 5.40504C100.013 5.41607 99.9991 5.41943 99.9927 5.40992C99.8418 5.21283 98.9795 4.44599 99.2989 4.21436Z" fill="#3A3B7B"/>
<path d="M92.0042 9.11655C92.0868 9.05755 92.1766 9.00844 92.2715 8.97033C92.3709 8.94306 92.4768 8.94757 92.5733 8.98322C92.6697 9.01887 92.7515 9.08367 92.8061 9.16786C92.855 9.25183 92.8741 9.34879 92.8607 9.44411C92.8472 9.53942 92.8018 9.62794 92.7313 9.69635C92.6767 9.75181 92.6146 9.80011 92.5469 9.84002C92.2448 10.0273 91.9401 10.2043 91.6354 10.3916C91.573 10.4385 91.5069 10.4805 91.4376 10.5173C91.3321 10.5678 91.2117 10.5813 91.097 10.5555C90.9823 10.5298 90.8805 10.4663 90.8094 10.3762C90.7562 10.3124 90.7114 10.2426 90.6758 10.1684C90.3871 9.58604 90.0877 9.00624 89.8097 8.4136C89.6814 8.15707 89.5772 7.86203 89.4756 7.57727C89.4316 7.49453 89.4231 7.39861 89.4517 7.30988C89.4803 7.22116 89.5438 7.14665 89.6288 7.1022C89.7137 7.05775 89.8134 7.04688 89.9066 7.07188C89.9998 7.09688 90.0792 7.15578 90.1278 7.23606C90.2773 7.42675 90.4097 7.62931 90.5234 7.84152C90.8121 8.35461 91.0874 8.8677 91.3654 9.3654C91.3816 9.39291 91.3994 9.41945 91.4189 9.44493C91.6281 9.36049 91.8249 9.2501 92.0042 9.11655Z" fill="#3A3B7B"/>
<path d="M94.989 8.93756C94.3288 9.67897 93.2222 9.49168 92.6662 8.53733C92.2706 7.86005 92.2011 6.7415 93.0618 6.03599C93.2456 5.88829 93.4654 5.78767 93.7006 5.74353C93.9891 5.70384 94.2832 5.75268 94.541 5.88308C94.7988 6.01347 95.0071 6.21874 95.136 6.46956C95.6065 7.29052 95.5397 8.33722 94.989 8.93756ZM94.7217 7.20842C94.6516 7.00668 94.5109 6.83445 94.3234 6.72097C94.2174 6.64842 94.0885 6.61314 93.9585 6.62109C93.8285 6.62903 93.7054 6.67971 93.6098 6.76458C93.2275 7.09041 93.1473 7.86262 93.4253 8.32184C93.4608 8.39672 93.5128 8.46327 93.5778 8.51683C93.6428 8.57039 93.7193 8.60966 93.8018 8.63189C93.8843 8.65414 93.9708 8.6588 94.0554 8.64558C94.14 8.63233 94.2205 8.60152 94.2914 8.55529C94.4986 8.4011 94.6506 8.1888 94.7263 7.94789C94.802 7.70696 94.7976 7.44939 94.7137 7.21099L94.7217 7.20842Z" fill="#3A3B7B"/>
<path d="M97.6833 7.53167C97.6157 7.54563 97.5459 7.54646 97.478 7.53412C97.41 7.52177 97.3453 7.49653 97.2877 7.45985C97.2373 7.43217 97.1939 7.39412 97.1607 7.34842C97.1274 7.30271 97.1051 7.25052 97.0954 7.19555C97.0857 7.1406 97.0888 7.08427 97.1045 7.0306C97.1202 6.97693 97.1481 6.92727 97.1862 6.88517C97.2525 6.80059 97.3467 6.74003 97.4535 6.71329C97.7322 6.63566 98.0191 6.58833 98.3088 6.5722C98.3725 6.56509 98.437 6.57026 98.4985 6.5874C98.5601 6.60457 98.6174 6.63333 98.6672 6.67206C98.717 6.71076 98.7583 6.75864 98.7885 6.81286C98.8188 6.86708 98.8374 6.92656 98.8434 6.9878C98.9269 7.28861 98.9361 7.604 98.8701 7.90882C98.6296 8.89395 97.8009 9.23258 96.8707 8.91703C96.6096 8.83267 96.3807 8.67546 96.2132 8.46552C95.9898 8.21268 95.8314 7.91304 95.7508 7.59069C95.6854 7.30364 95.6926 7.00578 95.7716 6.72194C95.8507 6.4381 95.9993 6.17652 96.2052 5.95904C96.4005 5.72267 96.654 5.53665 96.9429 5.41773C97.1255 5.32116 97.3391 5.2937 97.5417 5.34076C97.5876 5.35297 97.6293 5.37676 97.6625 5.40966C97.6957 5.44256 97.719 5.48337 97.7302 5.52787C97.7414 5.57236 97.74 5.61892 97.7261 5.66271C97.7122 5.70649 97.6864 5.74592 97.6513 5.77689C97.5845 5.83489 97.512 5.88645 97.4347 5.93082C97.1971 6.07607 96.9903 6.26323 96.8253 6.4824C96.7171 6.62422 96.6426 6.78707 96.6071 6.95948C96.5715 7.13189 96.5758 7.30969 96.6195 7.48038C96.6801 7.7131 96.8146 7.922 97.0044 8.07812C97.5924 8.59123 98.3569 8.09608 98.2233 7.39571C98.0282 7.44189 97.8571 7.49064 97.6833 7.53167Z" fill="#3A3B7B"/>
<path d="M101.276 8.9786C100.407 9.49171 99.4183 8.9786 99.2018 7.90112C99.0441 7.13147 99.3435 6.05397 100.391 5.64349C100.614 5.55804 100.856 5.52803 101.094 5.55626C101.381 5.60656 101.643 5.7418 101.845 5.94294C102.047 6.14408 102.178 6.40096 102.22 6.67738C102.396 7.59325 101.995 8.5707 101.276 8.9786ZM101.578 7.25204C101.578 7.03892 101.499 6.83269 101.356 6.66968C101.28 6.56885 101.169 6.49661 101.043 6.46526C100.918 6.43392 100.785 6.44541 100.667 6.4978C100.196 6.69276 99.8647 7.40084 99.985 7.92165C99.9942 8.00337 100.022 8.08219 100.066 8.15259C100.11 8.22298 100.17 8.28325 100.241 8.3292C100.312 8.37512 100.393 8.40562 100.477 8.41854C100.562 8.43143 100.648 8.42646 100.731 8.40395C100.979 8.32057 101.195 8.16476 101.347 7.95824C101.499 7.75172 101.579 7.50483 101.578 7.25204Z" fill="#3A3B7B"/>
<path d="M103.098 9.19412C103.085 9.28802 103.033 9.37307 102.955 9.43057C102.877 9.48804 102.777 9.51328 102.68 9.50069C102.582 9.48811 102.493 9.43873 102.433 9.36343C102.373 9.28815 102.347 9.19309 102.36 9.09919C102.373 9.0053 102.425 8.92025 102.503 8.86275C102.582 8.80525 102.681 8.78004 102.779 8.79262C102.876 8.80521 102.965 8.85457 103.025 8.92987C103.085 9.00517 103.111 9.10023 103.098 9.19412ZM102.865 5.73328C102.916 5.65876 102.991 5.60202 103.078 5.5715C103.165 5.54099 103.26 5.53834 103.349 5.56396C103.44 5.58566 103.519 5.6365 103.575 5.70795C103.631 5.77941 103.66 5.86715 103.657 5.95648C103.645 6.09977 103.623 6.24208 103.59 6.38234C103.502 6.85697 103.416 7.33157 103.323 7.80106C103.28 7.98835 103.224 8.16793 103.162 8.35776C103.141 8.41711 103.105 8.47074 103.058 8.51426C103.029 8.54701 102.991 8.57211 102.949 8.58727C102.907 8.60246 102.862 8.60719 102.817 8.60105C102.773 8.59491 102.73 8.5781 102.694 8.55218C102.659 8.52623 102.63 8.49202 102.612 8.45269C102.58 8.38214 102.562 8.30634 102.561 8.2295C102.561 7.91137 102.561 7.5907 102.582 7.27C102.618 6.81234 102.69 6.35787 102.796 5.9103C102.808 5.85034 102.832 5.793 102.865 5.74098V5.73328Z" fill="#3A3B7B"/>
<path fill-rule="evenodd" clip-rule="evenodd" d="M90.875 11.2557C90.8435 11.3233 90.8348 11.3987 90.8502 11.4713C90.8605 11.5669 90.883 11.661 90.9173 11.7513C90.9601 11.862 91.0081 11.9714 91.0671 12.1062C91.0807 12.1373 91.0949 12.1696 91.1098 12.2037C91.1894 12.3864 91.2894 12.6199 91.4228 12.9578C91.4605 13.0538 91.494 13.1505 91.5278 13.248C91.5414 13.2873 91.5551 13.3268 91.5691 13.3664C91.6193 13.5072 91.7057 13.6336 91.8202 13.7338C91.8688 13.7889 91.9333 13.829 92.0056 13.8491C92.0794 13.8696 92.1578 13.8683 92.2307 13.8454C92.3037 13.8225 92.3677 13.779 92.4146 13.7207C92.4605 13.6635 92.4879 13.5946 92.4932 13.5226C92.523 13.3823 92.5128 13.2369 92.4637 13.1017C92.3857 12.8772 92.2969 12.6523 92.1944 12.4324L92.1939 12.4314C92.0254 12.0874 91.8541 11.7457 91.6747 11.4039L91.6734 11.4015C91.6208 11.3124 91.5526 11.2328 91.4716 11.1662C91.4191 11.1068 91.3466 11.0667 91.2666 11.0529C91.1849 11.0387 91.1006 11.053 91.0288 11.093C90.9608 11.1302 90.907 11.1872 90.875 11.2557Z" fill="#3A3B7B"/>
<path fill-rule="evenodd" clip-rule="evenodd" d="M93.4489 10.4085C93.1847 10.3428 92.9087 10.3332 92.6402 10.3804C92.4323 10.4001 92.2278 10.4461 92.0858 10.5373C92.0135 10.5837 91.9551 10.6433 91.9227 10.7191C91.89 10.7952 91.8858 10.8823 91.9126 10.9794C91.9615 11.1571 92.0249 11.3299 92.0882 11.5022L92.0984 11.5301L92.0987 11.5307C92.2891 12.0312 92.4813 12.53 92.6753 13.0271C92.6979 13.1054 92.7299 13.181 92.7706 13.2522L92.7713 13.2536C92.8251 13.3421 92.8941 13.4213 92.9753 13.4878C93.016 13.5244 93.0662 13.5497 93.1207 13.561C93.1758 13.5724 93.233 13.5691 93.2862 13.5514C93.3394 13.5337 93.3865 13.5024 93.4224 13.4608C93.4578 13.4198 93.4809 13.3705 93.4894 13.318C93.5245 13.1753 93.5132 13.0258 93.4572 12.8895C93.4397 12.8436 93.426 12.7967 93.4115 12.7473C93.4067 12.7309 93.4018 12.7141 93.3967 12.6971C93.8407 12.5305 94.3131 12.3065 94.4792 11.7854C94.5443 11.6054 94.5497 11.4104 94.4948 11.2272C94.4397 11.0439 94.3269 10.8813 94.1717 10.762C93.9605 10.595 93.7138 10.4743 93.4489 10.4085ZM92.7164 11.0476C92.7252 11.0452 92.734 11.0429 92.7428 11.0409C93.0319 10.9972 93.3276 11.0554 93.5756 11.2045C93.6849 11.2774 93.7296 11.3585 93.7373 11.4364C93.7453 11.5167 93.7149 11.6037 93.6537 11.6874C93.5383 11.8454 93.3276 11.9718 93.1372 11.9954C92.9985 11.6887 92.8575 11.3696 92.7164 11.0476Z" fill="#3A3B7B"/>
<path d="M95.2106 9.84711C95.5252 9.70762 95.915 9.68353 96.2201 9.7816C96.2969 9.80308 96.3635 9.84953 96.4086 9.91302C96.4534 9.9761 96.4741 10.0521 96.4672 10.1281C96.4667 10.1775 96.4541 10.226 96.4304 10.2698C96.4062 10.3144 96.3712 10.3527 96.3283 10.3816C96.2855 10.4104 96.236 10.429 96.1841 10.4356C96.1322 10.4423 96.0794 10.4368 96.0302 10.4197L96.0264 10.4184L96.0229 10.4166C95.9977 10.404 95.9709 10.3944 95.9432 10.3882L95.9415 10.3879C95.7269 10.3332 95.5245 10.4238 95.4506 10.5352C95.4153 10.5883 95.411 10.6419 95.4403 10.6906C95.4718 10.7428 95.5489 10.8014 95.705 10.8432C95.7479 10.8545 95.7919 10.8654 95.8366 10.8765C95.96 10.9072 96.0883 10.9391 96.2123 10.9832L96.2128 10.9834C96.785 11.1924 96.998 11.6251 96.9251 12.0322C96.8529 12.4347 96.5027 12.801 95.9759 12.8875C95.7843 12.9282 95.5848 12.9203 95.3973 12.8644C95.2093 12.8084 95.0399 12.7061 94.9058 12.5677L94.9023 12.5641C94.86 12.512 94.8315 12.4508 94.8189 12.3858C94.8073 12.3271 94.8134 12.2665 94.8365 12.2111C94.8594 12.156 94.8983 12.1083 94.9484 12.0736C95.0013 12.0342 95.0651 12.0106 95.1319 12.0056C95.1984 12.0007 95.265 12.0146 95.3235 12.0455C95.3818 12.0726 95.4361 12.1071 95.4849 12.1482L95.4858 12.1489C95.572 12.2246 95.6763 12.2443 95.7763 12.2261C95.8778 12.2075 95.9732 12.1499 96.0346 12.0735C96.0956 11.9975 96.1201 11.9072 96.091 11.8196C96.0618 11.7313 95.9739 11.6324 95.7808 11.5498C95.7303 11.5292 95.6779 11.5126 95.6235 11.4964C95.6088 11.4921 95.5939 11.4877 95.5788 11.4833C95.5385 11.4716 95.4971 11.4595 95.4565 11.4462C95.4285 11.4371 95.4007 11.4284 95.3733 11.4198C95.2981 11.3963 95.2249 11.3734 95.1544 11.3427C95.001 11.2926 94.8685 11.1964 94.7766 11.0682C94.6842 10.9396 94.6378 10.7857 94.6441 10.6297C94.6446 10.2494 94.8942 9.98737 95.2106 9.84711Z" fill="#3A3B7B"/>
<path d="M99.2002 9.80657C99.1391 9.77797 99.0717 9.76439 99.0038 9.76705C98.936 9.76974 98.8699 9.78857 98.8115 9.82191C98.7536 9.85501 98.705 9.90135 98.6702 9.95682C98.6383 10.0035 98.6162 10.0558 98.6052 10.1106C98.5942 10.1654 98.5945 10.2218 98.606 10.2765C98.6173 10.3467 98.6299 10.4151 98.6424 10.4825C98.663 10.594 98.683 10.7031 98.6963 10.8142L98.6967 10.8171C98.7269 10.9914 98.7426 11.1677 98.744 11.3444L98.7442 11.3469C98.7544 11.5378 98.6867 11.7249 98.5555 11.8686L98.5534 11.8711C98.5107 11.9236 98.4536 11.9637 98.3885 11.9869C98.3234 12.0101 98.2528 12.0154 98.1847 12.0023C98.1167 11.9892 98.0537 11.9581 98.003 11.9127C97.9522 11.8672 97.9156 11.8089 97.8974 11.7446C97.8584 11.6091 97.8358 11.4697 97.83 11.3293L97.8967 10.3113C97.8977 10.298 97.8988 10.2844 97.8999 10.2706C97.9025 10.2397 97.9051 10.2082 97.9061 10.1788C97.9077 10.1356 97.9064 10.0911 97.8959 10.0491C97.8851 10.0061 97.8647 9.96516 97.8285 9.93033C97.7926 9.89585 97.7442 9.87041 97.6833 9.85309C97.5731 9.82248 97.4799 9.82345 97.4023 9.85507C97.3246 9.88669 97.2714 9.9454 97.2337 10.0132C97.1964 10.0805 97.1724 10.1601 97.1542 10.2398C97.1407 10.299 97.1299 10.3611 97.1196 10.4202C97.1161 10.4406 97.1126 10.4606 97.1091 10.4801L97.109 10.4806C97.0539 10.8049 97.0375 11.1341 97.0601 11.462C97.0643 11.6391 97.1028 11.814 97.1737 11.9776C97.2536 12.1888 97.3983 12.3717 97.5888 12.5023C97.7797 12.6332 98.0075 12.7053 98.242 12.7091C98.4765 12.7129 98.7067 12.6483 98.9021 12.5237C99.0972 12.3993 99.2483 12.221 99.3356 12.0124C99.4577 11.7467 99.5151 11.4577 99.5032 11.1675C99.4961 10.9557 99.484 10.7422 99.4721 10.5298C99.4662 10.4256 99.4604 10.3216 99.4551 10.2183C99.4525 10.1147 99.4169 10.0143 99.3531 9.93066C99.3136 9.87778 99.2611 9.83513 99.2002 9.80657Z" fill="#3A3B7B"/>
<path d="M101.36 11.4028C101.354 11.4104 101.347 11.4182 101.34 11.4263C101.291 11.1515 101.245 10.8768 101.199 10.6017C101.182 10.503 101.166 10.4038 101.149 10.305L101.147 10.2939L101.141 10.2844C101.129 10.2665 101.128 10.2489 101.128 10.2114V10.2071L101.128 10.2028C101.115 10.1253 101.079 10.0533 101.023 9.99603C100.967 9.93892 100.895 9.89918 100.816 9.88193C100.736 9.86316 100.653 9.8673 100.576 9.89384C100.5 9.92031 100.433 9.96788 100.384 10.0306C100.344 10.0787 100.31 10.1321 100.286 10.1891C100.229 10.312 100.172 10.4352 100.115 10.5587L100.114 10.5608C99.972 10.8692 99.8287 11.1796 99.6895 11.4925L99.6891 11.4935C99.6037 11.6964 99.5331 11.9101 99.4629 12.1232C99.4488 12.1657 99.4348 12.2083 99.4206 12.2507C99.3953 12.3179 99.3842 12.3893 99.388 12.4607C99.3834 12.5247 99.3993 12.5884 99.4337 12.6434C99.4688 12.6995 99.5213 12.7437 99.5838 12.7697C99.6502 12.7976 99.7243 12.8035 99.7945 12.7865C99.8646 12.7695 99.9268 12.7307 99.9714 12.6762C100.028 12.6089 100.077 12.5356 100.117 12.4579C100.235 12.2265 100.348 11.9922 100.46 11.759C100.503 11.6687 100.546 11.5879 100.594 11.4999C100.597 11.5108 100.6 11.5214 100.604 11.532C100.654 11.7444 100.739 11.9479 100.855 12.135C100.877 12.1747 100.908 12.2093 100.945 12.2366C100.983 12.2642 101.026 12.2835 101.072 12.2934C101.119 12.3032 101.167 12.3032 101.213 12.2935C101.259 12.2838 101.303 12.2644 101.34 12.2369L101.415 12.1833L101.994 11.7154L101.96 11.9247C101.913 12.2125 101.866 12.4979 101.816 12.7834C101.784 12.9099 101.784 13.0421 101.817 13.1686C101.831 13.2398 101.866 13.3053 101.92 13.3568C101.973 13.4088 102.042 13.4441 102.116 13.4582C102.191 13.4722 102.268 13.4644 102.338 13.4358C102.407 13.4075 102.466 13.3603 102.507 13.3001C102.603 13.1865 102.662 13.0489 102.678 12.9037C102.703 12.6987 102.731 12.4909 102.758 12.2832C102.79 12.0438 102.822 11.8044 102.849 11.5696L102.849 11.5689C102.875 11.3119 102.888 11.0538 102.887 10.7956C102.893 10.714 102.872 10.6328 102.827 10.5633C102.781 10.4936 102.714 10.4394 102.635 10.4084C102.553 10.3724 102.46 10.3628 102.372 10.381C102.284 10.399 102.204 10.4435 102.145 10.508C102.038 10.6027 101.938 10.7042 101.845 10.8116L101.844 10.8123C101.743 10.9336 101.642 11.0573 101.542 11.1802C101.481 11.2549 101.42 11.3294 101.36 11.4028Z" fill="#3A3B7B"/>
</g>
<rect x="119.149" y="0.893921" width="16.0256" height="16.0256" rx="2.67093" fill="#F5F7FA"/>
<g clip-path="url(#clip4_212_1585)">
<path d="M131.982 4.79702C131.982 4.9526 132.11 5.07872 132.267 5.07872H132.553C132.71 5.07872 132.838 4.9526 132.838 4.79702C132.838 4.64144 132.71 4.51532 132.553 4.51532H132.267C132.11 4.51532 131.982 4.64144 131.982 4.79702Z" fill="#212326"/>
<path d="M123.712 13.5297H125.097L124.694 13.1313C124.587 13.0257 124.442 12.9663 124.291 12.9663H123.712C121.507 12.9663 119.72 11.2006 119.72 9.02252C119.72 6.84441 121.507 5.07872 123.712 5.07872H128.275C130.48 5.07872 132.267 6.84441 132.267 9.02252C132.267 11.2006 130.48 12.9663 128.275 12.9663H126.568C126.341 12.9663 126.123 12.8773 125.963 12.7188L125.491 12.2521C125.223 11.9879 124.86 11.8395 124.482 11.8395H123.712C122.137 11.8395 120.86 10.5783 120.86 9.02252C120.86 7.46672 122.137 6.20552 123.712 6.20552H128.275C129.85 6.20552 131.127 7.46672 131.127 9.02252C131.127 10.5783 129.85 11.8395 128.275 11.8395H127.179C126.952 11.8395 126.734 11.7505 126.574 11.592L126.101 11.1253C125.834 10.8611 125.471 10.7127 125.093 10.7127H123.712C122.767 10.7127 122.001 9.95598 122.001 9.02252C122.001 8.08905 122.767 7.33232 123.712 7.33232H128.275C129.22 7.33232 129.986 8.08905 129.986 9.02252C129.986 9.9446 129.238 10.6942 128.309 10.7124L128.309 10.7127H127.892C127.665 10.7127 127.447 10.6237 127.287 10.4652L126.814 9.99846C126.595 9.78171 126.311 9.64291 126.008 9.60007L125.993 9.58592H123.712C123.397 9.58592 123.142 9.33367 123.142 9.02252C123.142 8.71136 123.397 8.45912 123.712 8.45912H128.275C128.59 8.45912 128.845 8.71136 128.845 9.02252C128.845 9.33367 128.59 9.58592 128.275 9.58592H127.134L127.537 9.98431C127.644 10.09 127.789 10.1493 127.941 10.1493H128.275C128.905 10.1493 129.416 9.64483 129.416 9.02252C129.416 8.40021 128.905 7.89572 128.275 7.89572H123.712C123.082 7.89572 122.571 8.40021 122.571 9.02252C122.571 9.64483 123.082 10.1493 123.712 10.1493H125.806C126.033 10.1493 126.251 10.2384 126.411 10.3968L126.884 10.8636C127.151 11.1277 127.514 11.2761 127.892 11.2761H128.417V11.2718C129.611 11.1991 130.556 10.2198 130.556 9.02252C130.556 7.7779 129.535 6.76892 128.275 6.76892H123.712C122.452 6.76892 121.431 7.7779 121.431 9.02252C121.431 10.2672 122.452 11.2761 123.712 11.2761H125.093C125.32 11.2761 125.538 11.3652 125.698 11.5236L126.171 11.9904C126.438 12.2545 126.801 12.4029 127.179 12.4029H128.275C130.165 12.4029 131.697 10.8895 131.697 9.02252C131.697 7.15557 130.165 5.64212 128.275 5.64212H123.712C121.822 5.64212 120.29 7.15557 120.29 9.02252C120.29 10.8895 121.822 12.4029 123.712 12.4029H124.482C124.709 12.4029 124.927 12.492 125.087 12.6504L125.56 13.1172C125.827 13.3813 126.19 13.5297 126.568 13.5297H128.275C130.795 13.5297 132.838 11.5118 132.838 9.02252C132.838 6.53326 130.795 4.51532 128.275 4.51532L123.712 4.51532C121.192 4.51532 119.149 6.53326 119.149 9.02252C119.149 11.5118 121.192 13.5297 123.712 13.5297Z" fill="#212326"/>
</g>
<rect x="148.863" y="0.893921" width="16.0256" height="16.0256" rx="2.67093" fill="#F5F7FA"/>
<g clip-path="url(#clip5_212_1585)">
<path d="M152.984 5.51691C152.306 5.51691 151.656 5.78624 151.177 6.26565L149.612 7.83025C149.133 8.30966 148.863 8.95987 148.863 9.63787C148.863 11.0497 150.008 12.1942 151.42 12.1942C152.098 12.1942 152.748 11.9249 153.227 11.4455L154.31 10.3632C154.31 10.3632 154.31 10.3633 154.31 10.3632L157.463 7.20997C157.692 6.981 158.002 6.85237 158.326 6.85237C158.868 6.85237 159.328 7.2057 159.487 7.69462L160.482 6.69945C160.028 5.9884 159.232 5.51691 158.326 5.51691C157.648 5.51691 156.998 5.78624 156.518 6.26565L152.283 10.5012C152.054 10.7301 151.743 10.8588 151.42 10.8588C150.745 10.8588 150.199 10.3122 150.199 9.63787C150.199 9.31406 150.327 9.00352 150.556 8.77455L152.121 7.20997C152.35 6.981 152.66 6.85237 152.984 6.85237C153.526 6.85237 153.986 7.20571 154.145 7.69465L155.14 6.69948C154.686 5.98842 153.89 5.51691 152.984 5.51691Z" fill="#394149"/>
<path d="M157.625 10.5012C157.396 10.7301 157.085 10.8588 156.762 10.8588C156.22 10.8588 155.76 10.5055 155.601 10.0167L154.605 11.0118C155.059 11.7228 155.855 12.1942 156.762 12.1942C157.44 12.1942 158.09 11.9249 158.569 11.4455L162.805 7.20997C163.034 6.981 163.344 6.85237 163.668 6.85237C164.342 6.85237 164.889 7.39899 164.889 8.07328C164.889 8.39708 164.76 8.70762 164.531 8.93659L162.967 10.5012C162.738 10.7301 162.427 10.8588 162.103 10.8588C161.561 10.8588 161.102 10.5055 160.942 10.0166L159.947 11.0117C160.401 11.7228 161.197 12.1942 162.103 12.1942C162.781 12.1942 163.432 11.9249 163.911 11.4455L165.476 9.8809C165.955 9.40149 166.224 8.75127 166.224 8.07328C166.224 6.66143 165.08 5.51691 163.668 5.51691C162.99 5.51691 162.34 5.78624 161.86 6.26565L157.625 10.5012Z" fill="#394149"/>
</g>
<defs>
<clipPath id="clip0_212_1585">
<rect width="13.3547" height="13.3547" fill="white" transform="translate(0.410645 0.958862)"/>
</clipPath>
<clipPath id="clip1_212_1585">
<rect width="13.3547" height="9.34826" fill="white" transform="translate(30.0442 4.1814)"/>
</clipPath>
<clipPath id="clip2_212_1585">
<rect width="18.3627" height="10.016" fill="white" transform="translate(59.7209 3.84753)"/>
</clipPath>
<clipPath id="clip3_212_1585">
<rect width="15.6917" height="9.68213" fill="white" transform="translate(89.4351 4.1814)"/>
</clipPath>
<clipPath id="clip4_212_1585">
<rect width="13.6885" height="9.0144" fill="white" transform="translate(119.149 4.51532)"/>
</clipPath>
<clipPath id="clip5_212_1585">
<rect width="17.3611" height="6.67733" fill="white" transform="translate(148.863 5.51691)"/>
</clipPath>
</defs>
</svg>
