<svg width="11" height="12" viewBox="0 0 11 12" fill="none" xmlns="http://www.w3.org/2000/svg">
<path opacity="0.1" fill-rule="evenodd" clip-rule="evenodd" d="M0.164795 5.72719C0.164795 2.77696 2.55643 0.38533 5.50666 0.38533C8.45689 0.38533 10.8485 2.77696 10.8485 5.72719C10.8485 8.67743 8.45689 11.0691 5.50666 11.0691C2.55643 11.0691 0.164795 8.67743 0.164795 5.72719Z" fill="white"/>
<path fill-rule="evenodd" clip-rule="evenodd" d="M7.73284 3.89079C7.97802 3.95807 8.1711 4.1563 8.23663 4.40804C8.3557 4.86428 8.3557 5.81624 8.3557 5.81624C8.3557 5.81624 8.3557 6.76816 8.23663 7.22444C8.1711 7.47618 7.97802 7.67441 7.73284 7.74172C7.28853 7.86395 5.50671 7.86395 5.50671 7.86395C5.50671 7.86395 3.72489 7.86395 3.28054 7.74172C3.03537 7.67441 2.84228 7.47618 2.77676 7.22444C2.65771 6.76816 2.65771 5.81624 2.65771 5.81624C2.65771 5.81624 2.65771 4.86428 2.77676 4.40804C2.84228 4.1563 3.03537 3.95807 3.28054 3.89079C3.72489 3.76852 5.50671 3.76852 5.50671 3.76852C5.50671 3.76852 7.28853 3.76852 7.73284 3.89079ZM4.97253 5.01494V6.79556L6.39703 5.90529L4.97253 5.01494Z" fill="white"/>
</svg>
