<svg width="7" height="7" viewBox="0 0 7 7" fill="none" xmlns="http://www.w3.org/2000/svg">
<g clip-path="url(#clip0_347_587)">
<path fill-rule="evenodd" clip-rule="evenodd" d="M6.34977 1.10777C6.41778 1.17579 6.44083 1.27676 6.40905 1.36755L4.65625 6.37555C4.62233 6.47245 4.5327 6.53884 4.43011 6.54302C4.32753 6.54721 4.23279 6.48835 4.19109 6.39453L3.2286 4.22893L1.06301 3.26645C0.969191 3.22475 0.910331 3.13001 0.914516 3.02742C0.918701 2.92484 0.985083 2.8352 1.08199 2.80129L6.08999 1.04849C6.18078 1.01671 6.28175 1.03975 6.34977 1.10777ZM3.71697 4.09468L4.39221 5.61398L5.57388 2.23777L3.71697 4.09468ZM5.21976 1.88365L1.84356 3.06533L3.36285 3.74057L5.21976 1.88365Z" fill="white"/>
</g>
<defs>
<clipPath id="clip0_347_587">
<rect width="6.0096" height="6.0096" fill="white" transform="translate(0.663818 0.784027)"/>
</clipPath>
</defs>
</svg>
